{
  "accessors": [
    {
      "name": "Mesh1 Model_1_0_positions",
      "componentType": 5126,
      "count": 22,
      "min": [
        -2.559999942779541,
        -4.03000020980835,
        -3.9700000286102295
      ],
      "max": [
        2.200000047683716,
        -0.019999999552965164,
        4.070000171661377
      ],
      "type": "VEC3",
      "bufferView": 0,
      "byteOffset": 0
    },
    {
      "name": "Mesh1 Model_1_0_normals",
      "componentType": 5126,
      "count": 22,
      "min": [
        -1,
        -1,
        -1
      ],
      "max": [
        0,
        1,
        1
      ],
      "type": "VEC3",
      "bufferView": 1,
      "byteOffset": 0
    },
    {
      "name": "Mesh1 Model_1_0_texcoords",
      "componentType": 5126,
      "count": 22,
      "min": [
        -3.256230115890503,
        -2.256230115890503
      ],
      "max": [
        3.338249921798706,
        4.338250160217285
      ],
      "type": "VEC2",
      "bufferView": 2,
      "byteOffset": 0
    },
    {
      "name": "Mesh1 Model_1_0_indices",
      "componentType": 5123,
      "count": 36,
      "min": [
        0
      ],
      "max": [
        21
      ],
      "type": "SCALAR",
      "bufferView": 3,
      "byteOffset": 0
    },
    {
      "name": "Mesh1 Model_1_1_positions",
      "componentType": 5126,
      "count": 24,
      "min": [
        2.200000047683716,
        -4.03000020980835,
        -3.9700000286102295
      ],
      "max": [
        2.200000047683716,
        -0.019999999552965164,
        4.070000171661377
      ],
      "type": "VEC3",
      "bufferView": 0,
      "byteOffset": 264
    },
    {
      "name": "Mesh1 Model_1_1_normals",
      "componentType": 5126,
      "count": 24,
      "min": [
        1,
        0,
        0
      ],
      "max": [
        1,
        0,
        0
      ],
      "type": "VEC3",
      "bufferView": 1,
      "byteOffset": 264
    },
    {
      "name": "Mesh1 Model_1_1_texcoords",
      "componentType": 5126,
      "count": 24,
      "min": [
        -9.62936019897461,
        -1.4941699504852295
      ],
      "max": [
        7.955939769744873,
        4.353020191192627
      ],
      "type": "VEC2",
      "bufferView": 2,
      "byteOffset": 176
    },
    {
      "name": "Mesh1 Model_1_1_indices",
      "componentType": 5123,
      "count": 54,
      "min": [
        0
      ],
      "max": [
        23
      ],
      "type": "SCALAR",
      "bufferView": 3,
      "byteOffset": 72
    },
    {
      "name": "Mesh1 Model_1_2_positions",
      "componentType": 5126,
      "count": 8,
      "min": [
        2.200000047683716,
        -1.9309799671173096,
        -3.2706000804901123
      ],
      "max": [
        2.200000047683716,
        -0.3809809982776642,
        3.459399938583374
      ],
      "type": "VEC3",
      "bufferView": 0,
      "byteOffset": 552
    },
    {
      "name": "Mesh1 Model_1_2_normals",
      "componentType": 5126,
      "count": 8,
      "min": [
        1,
        0,
        0
      ],
      "max": [
        1,
        0,
        0
      ],
      "type": "VEC3",
      "bufferView": 1,
      "byteOffset": 552
    },
    {
      "name": "Mesh1 Model_1_2_texcoords",
      "componentType": 5126,
      "count": 8,
      "min": [
        -10.71560001373291,
        1.8282190561294556
      ],
      "max": [
        10.130800247192383,
        5.197780132293701
      ],
      "type": "VEC2",
      "bufferView": 2,
      "byteOffset": 368
    },
    {
      "name": "Mesh1 Model_1_2_indices",
      "componentType": 5123,
      "count": 12,
      "min": [
        0
      ],
      "max": [
        7
      ],
      "type": "SCALAR",
      "bufferView": 3,
      "byteOffset": 180
    },
    {
      "name": "Mesh1 Model_1_3_positions",
      "componentType": 5126,
      "count": 4,
      "min": [
        2.200000047683716,
        -4.03000020980835,
        -1.0152000188827515
      ],
      "max": [
        2.200000047683716,
        -0.7295590043067932,
        1.1724499464035034
      ],
      "type": "VEC3",
      "bufferView": 0,
      "byteOffset": 648
    },
    {
      "name": "Mesh1 Model_1_3_normals",
      "componentType": 5126,
      "count": 4,
      "min": [
        1,
        0,
        0
      ],
      "max": [
        1,
        0,
        0
      ],
      "type": "VEC3",
      "bufferView": 1,
      "byteOffset": 648
    },
    {
      "name": "Mesh1 Model_1_3_texcoords",
      "componentType": 5126,
      "count": 4,
      "min": [
        -5.551119755337213e-17,
        2
      ],
      "max": [
        0.7543630003929138,
        3.0001299381256104
      ],
      "type": "VEC2",
      "bufferView": 2,
      "byteOffset": 432
    },
    {
      "name": "Mesh1 Model_1_3_indices",
      "componentType": 5123,
      "count": 6,
      "min": [
        0
      ],
      "max": [
        3
      ],
      "type": "SCALAR",
      "bufferView": 3,
      "byteOffset": 204
    }
  ],
  "asset": {
    "generator": "obj2gltf",
    "version": "2.0"
  },
  "buffers": [
    {
      "name": "bengfang",
      "byteLength": 167776,
      "uri": "data:application/octet-stream;base64,"
    }
  ],
  "bufferViews": [
    {
      "name": "bufferView_0",
      "buffer": 0,
      "byteLength": 696,
      "byteOffset": 0,
      "byteStride": 12,
      "target": 34962
    },
    {
      "name": "bufferView_1",
      "buffer": 0,
      "byteLength": 696,
      "byteOffset": 696,
      "byteStride": 12,
      "target": 34962
    },
    {
      "name": "bufferView_2",
      "buffer": 0,
      "byteLength": 464,
      "byteOffset": 1392,
      "byteStride": 8,
      "target": 34962
    },
    {
      "name": "bufferView_3",
      "buffer": 0,
      "byteLength": 216,
      "byteOffset": 1856,
      "target": 34963
    },
    {
      "buffer": 0,
      "byteOffset": 2072,
      "byteLength": 48827
    },
    {
      "buffer": 0,
      "byteOffset": 50899,
      "byteLength": 15580
    },
    {
      "buffer": 0,
      "byteOffset": 66479,
      "byteLength": 43731
    },
    {
      "buffer": 0,
      "byteOffset": 110210,
      "byteLength": 57563
    }
  ],
  "images": [
    {
      "name": "Stone_Flagstone_Ashlar",
      "mimeType": "image/jpeg",
      "bufferView": 4
    },
    {
      "name": "Cladding_Stucco_White",
      "mimeType": "image/jpeg",
      "bufferView": 5
    },
    {
      "name": "_",
      "mimeType": "image/png",
      "bufferView": 6
    },
    {
      "name": "_1",
      "mimeType": "image/png",
      "bufferView": 7
    }
  ],
  "materials": [
    {
      "name": "Stone_Flagstone_Ashlar",
      "pbrMetallicRoughness": {
        "baseColorTexture": {
          "index": 0
        },
        "baseColorFactor": [
          1,
          1,
          1,
          1
        ],
        "metallicFactor": 0,
        "roughnessFactor": 1
      },
      "emissiveFactor": [
        0,
        0,
        0
      ],
      "alphaMode": "OPAQUE",
      "doubleSided": false
    },
    {
      "name": "Cladding_Stucco_White",
      "pbrMetallicRoughness": {
        "baseColorTexture": {
          "index": 1
        },
        "baseColorFactor": [
          1,
          1,
          1,
          1
        ],
        "metallicFactor": 0,
        "roughnessFactor": 1
      },
      "emissiveFactor": [
        0,
        0,
        0
      ],
      "alphaMode": "OPAQUE",
      "doubleSided": false
    },
    {
      "name": "_",
      "pbrMetallicRoughness": {
        "baseColorTexture": {
          "index": 2
        },
        "baseColorFactor": [
          1,
          1,
          1,
          0.8
        ],
        "metallicFactor": 0,
        "roughnessFactor": 1
      },
      "emissiveFactor": [
        0,
        0,
        0
      ],
      "alphaMode": "BLEND",
      "doubleSided": true
    },
    {
      "name": "_1",
      "pbrMetallicRoughness": {
        "baseColorTexture": {
          "index": 3
        },
        "baseColorFactor": [
          1,
          1,
          1,
          0.8
        ],
        "metallicFactor": 0,
        "roughnessFactor": 1
      },
      "emissiveFactor": [
        0,
        0,
        0
      ],
      "alphaMode": "BLEND",
      "doubleSided": true
    }
  ],
  "meshes": [
    {
      "name": "Mesh1 Model_1",
      "primitives": [
        {
          "attributes": {
            "POSITION": 0,
            "NORMAL": 1,
            "TEXCOORD_0": 2
          },
          "indices": 3,
          "material": 0,
          "mode": 4
        },
        {
          "attributes": {
            "POSITION": 4,
            "NORMAL": 5,
            "TEXCOORD_0": 6
          },
          "indices": 7,
          "material": 1,
          "mode": 4
        },
        {
          "attributes": {
            "POSITION": 8,
            "NORMAL": 9,
            "TEXCOORD_0": 10
          },
          "indices": 11,
          "material": 2,
          "mode": 4
        },
        {
          "attributes": {
            "POSITION": 12,
            "NORMAL": 13,
            "TEXCOORD_0": 14
          },
          "indices": 15,
          "material": 3,
          "mode": 4
        }
      ]
    }
  ],
  "nodes": [
    {
      "name": "Mesh1 Model",
      "mesh": 0
    }
  ],
  "samplers": [
    {
      "magFilter": 9729,
      "minFilter": 9986,
      "wrapS": 10497,
      "wrapT": 10497
    }
  ],
  "scene": 0,
  "scenes": [
    {
      "nodes": [
        0
      ]
    }
  ],
  "textures": [
    {
      "name": "Stone_Flagstone_Ashlar",
      "sampler": 0,
      "source": 0
    },
    {
      "name": "Cladding_Stucco_White",
      "sampler": 0,
      "source": 1
    },
    {
      "name": "_",
      "sampler": 0,
      "source": 2
    },
    {
      "name": "_1",
      "sampler": 0,
      "source": 3
    }
  ]
}
