{
  "accessors": [
    {
      "name": "Mesh1 Model_1_0_positions",
      "componentType": 5126,
      "count": 4,
      "min": [
        0.3646099865436554,
        -1.0846199989318848,
        0.029999999329447746
      ],
      "max": [
        0.804610013961792,
        -0.7346190214157104,
        0.029999999329447746
      ],
      "type": "VEC3",
      "bufferView": 0,
      "byteOffset": 0
    },
    {
      "name": "Mesh1 Model_1_0_normals",
      "componentType": 5126,
      "count": 4,
      "min": [
        0,
        -2.8360799714683424e-15,
        1
      ],
      "max": [
        0,
        -2.8360799714683424e-15,
        1
      ],
      "type": "VEC3",
      "bufferView": 1,
      "byteOffset": 0
    },
    {
      "name": "Mesh1 Model_1_0_texcoords",
      "componentType": 5126,
      "count": 4,
      "min": [
        14.354700088500977,
        29.922000885009766
      ],
      "max": [
        31.677600860595703,
        43.701499938964844
      ],
      "type": "VEC2",
      "bufferView": 2,
      "byteOffset": 0
    },
    {
      "name": "Mesh1 Model_1_0_indices",
      "componentType": 5123,
      "count": 6,
      "min": [
        0
      ],
      "max": [
        3
      ],
      "type": "SCALAR",
      "bufferView": 3,
      "byteOffset": 0
    },
    {
      "name": "Mesh1 Model_1_1_positions",
      "componentType": 5126,
      "count": 16,
      "min": [
        0.3646099865436554,
        -1.0846199989318848,
        -0.029999999329447746
      ],
      "max": [
        0.804610013961792,
        -0.7346190214157104,
        0.029999999329447746
      ],
      "type": "VEC3",
      "bufferView": 0,
      "byteOffset": 48
    },
    {
      "name": "Mesh1 Model_1_1_normals",
      "componentType": 5126,
      "count": 16,
      "min": [
        -1,
        -1,
        -8.422299993928253e-14
      ],
      "max": [
        1,
        1,
        6.015930212755621e-14
      ],
      "type": "VEC3",
      "bufferView": 1,
      "byteOffset": 48
    },
    {
      "name": "Mesh1 Model_1_1_texcoords",
      "componentType": 5126,
      "count": 16,
      "min": [
        -31.677600860595703,
        -0.181099995970726
      ],
      "max": [
        31.677600860595703,
        43.701499938964844
      ],
      "type": "VEC2",
      "bufferView": 2,
      "byteOffset": 32
    },
    {
      "name": "Mesh1 Model_1_1_indices",
      "componentType": 5123,
      "count": 24,
      "min": [
        0
      ],
      "max": [
        15
      ],
      "type": "SCALAR",
      "bufferView": 3,
      "byteOffset": 12
    },
    {
      "name": "Mesh1 Model_1_2_positions",
      "componentType": 5126,
      "count": 38,
      "min": [
        0.09233389794826508,
        -2.280250072479248,
        -0.029999999329447746
      ],
      "max": [
        1.212339997291565,
        -0.25074800848960876,
        0.029999999329447746
      ],
      "type": "VEC3",
      "bufferView": 0,
      "byteOffset": 240
    },
    {
      "name": "Mesh1 Model_1_2_normals",
      "componentType": 5126,
      "count": 38,
      "min": [
        -0.9998907446861267,
        -1,
        -1
      ],
      "max": [
        0.9998907446861267,
        1,
        1
      ],
      "type": "VEC3",
      "bufferView": 1,
      "byteOffset": 240
    },
    {
      "name": "Mesh1 Model_1_2_texcoords",
      "componentType": 5126,
      "count": 38,
      "min": [
        -0.7954980134963989,
        0.9803150296211243
      ],
      "max": [
        0.7954980134963989,
        2.496229887008667
      ],
      "type": "VEC2",
      "bufferView": 2,
      "byteOffset": 160
    },
    {
      "name": "Mesh1 Model_1_2_indices",
      "componentType": 5123,
      "count": 84,
      "min": [
        0
      ],
      "max": [
        37
      ],
      "type": "SCALAR",
      "bufferView": 3,
      "byteOffset": 60
    },
    {
      "name": "Mesh1 Model_1_3_positions",
      "componentType": 5126,
      "count": 70,
      "min": [
        -1.4900000095367432,
        -2.5299999713897705,
        -0.05000000074505806
      ],
      "max": [
        1.4700000286102295,
        0,
        0.029999999329447746
      ],
      "type": "VEC3",
      "bufferView": 0,
      "byteOffset": 696
    },
    {
      "name": "Mesh1 Model_1_3_normals",
      "componentType": 5126,
      "count": 70,
      "min": [
        -0.9999898076057434,
        -1,
        -1
      ],
      "max": [
        0.9999974370002747,
        1,
        1
      ],
      "type": "VEC3",
      "bufferView": 1,
      "byteOffset": 696
    },
    {
      "name": "Mesh1 Model_1_3_texcoords",
      "componentType": 5126,
      "count": 70,
      "min": [
        -4.8884501457214355,
        0.8359580039978027
      ],
      "max": [
        4.8884501457214355,
        9.338910102844238
      ],
      "type": "VEC2",
      "bufferView": 2,
      "byteOffset": 464
    },
    {
      "name": "Mesh1 Model_1_3_indices",
      "componentType": 5123,
      "count": 117,
      "min": [
        0
      ],
      "max": [
        69
      ],
      "type": "SCALAR",
      "bufferView": 3,
      "byteOffset": 228
    },
    {
      "name": "Mesh1 Model_1_4_positions",
      "componentType": 5126,
      "count": 4,
      "min": [
        -1.2263799905776978,
        -2.3077800273895264,
        -0.05000000074505806
      ],
      "max": [
        1.1836199760437012,
        -2.3077800273895264,
        0.029999999329447746
      ],
      "type": "VEC3",
      "bufferView": 0,
      "byteOffset": 1536
    },
    {
      "name": "Mesh1 Model_1_4_normals",
      "componentType": 5126,
      "count": 4,
      "min": [
        0,
        1,
        -4.511950115962263e-15
      ],
      "max": [
        0,
        1,
        -4.511950115962263e-15
      ],
      "type": "VEC3",
      "bufferView": 1,
      "byteOffset": 1536
    },
    {
      "name": "Mesh1 Model_1_4_texcoords",
      "componentType": 5126,
      "count": 4,
      "min": [
        -1.341189980506897,
        0.9453192949295044
      ],
      "max": [
        1.2944200038909912,
        1.0328084230422974
      ],
      "type": "VEC2",
      "bufferView": 2,
      "byteOffset": 1024
    },
    {
      "name": "Mesh1 Model_1_4_indices",
      "componentType": 5123,
      "count": 6,
      "min": [
        0
      ],
      "max": [
        3
      ],
      "type": "SCALAR",
      "bufferView": 3,
      "byteOffset": 464
    },
    {
      "name": "Mesh2 Model_1_0_positions",
      "componentType": 5126,
      "count": 4,
      "min": [
        -0.7359020113945007,
        -1.064620018005371,
        -0.0136567996814847
      ],
      "max": [
        -0.2967199981212616,
        -0.714618980884552,
        0.01324050035327673
      ],
      "type": "VEC3",
      "bufferView": 0,
      "byteOffset": 1584
    },
    {
      "name": "Mesh2 Model_1_0_normals",
      "componentType": 5126,
      "count": 4,
      "min": [
        0.06105057895183563,
        0.00010017596650868654,
        0.9981346726417542
      ],
      "max": [
        0.06105057895183563,
        0.00010017596650868654,
        0.9981346726417542
      ],
      "type": "VEC3",
      "bufferView": 1,
      "byteOffset": 1584
    },
    {
      "name": "Mesh2 Model_1_0_texcoords",
      "componentType": 5126,
      "count": 4,
      "min": [
        -28.950199127197266,
        29.13450050354004
      ],
      "max": [
        -11.627400398254395,
        42.91400146484375
      ],
      "type": "VEC2",
      "bufferView": 2,
      "byteOffset": 1056
    },
    {
      "name": "Mesh2 Model_1_0_indices",
      "componentType": 5123,
      "count": 6,
      "min": [
        0
      ],
      "max": [
        3
      ],
      "type": "SCALAR",
      "bufferView": 3,
      "byteOffset": 476
    },
    {
      "name": "Mesh2 Model_1_1_positions",
      "componentType": 5126,
      "count": 16,
      "min": [
        -0.7395650148391724,
        -1.064620018005371,
        -0.07354480028152466
      ],
      "max": [
        -0.2967199981212616,
        -0.714618980884552,
        0.01324050035327673
      ],
      "type": "VEC3",
      "bufferView": 0,
      "byteOffset": 1632
    },
    {
      "name": "Mesh2 Model_1_1_normals",
      "componentType": 5126,
      "count": 16,
      "min": [
        -0.9981347918510437,
        -1,
        -0.061048489063978195
      ],
      "max": [
        0.9981347918510437,
        1,
        0.061048489063978195
      ],
      "type": "VEC3",
      "bufferView": 1,
      "byteOffset": 1632
    },
    {
      "name": "Mesh2 Model_1_1_texcoords",
      "componentType": 5126,
      "count": 16,
      "min": [
        -29.116600036621094,
        -1.8954700231552124
      ],
      "max": [
        29.11669921875,
        42.914100646972656
      ],
      "type": "VEC2",
      "bufferView": 2,
      "byteOffset": 1088
    },
    {
      "name": "Mesh2 Model_1_1_indices",
      "componentType": 5123,
      "count": 24,
      "min": [
        0
      ],
      "max": [
        15
      ],
      "type": "SCALAR",
      "bufferView": 3,
      "byteOffset": 488
    },
    {
      "name": "Mesh2 Model_1_2_positions",
      "componentType": 5126,
      "count": 32,
      "min": [
        -1.2142399549484253,
        -2.280250072479248,
        -0.09093660116195679
      ],
      "max": [
        -0.009531339630484581,
        -0.23907500505447388,
        0.04220829904079437
      ],
      "type": "VEC3",
      "bufferView": 0,
      "byteOffset": 1824
    },
    {
      "name": "Mesh2 Model_1_2_normals",
      "componentType": 5126,
      "count": 32,
      "min": [
        -0.9981334805488586,
        -0.9997840523719788,
        -0.9981346726417542
      ],
      "max": [
        0.9981334805488586,
        0.9997840523719788,
        0.9981346726417542
      ],
      "type": "VEC3",
      "bufferView": 1,
      "byteOffset": 1824
    },
    {
      "name": "Mesh2 Model_1_2_texcoords",
      "componentType": 5126,
      "count": 32,
      "min": [
        -0.7945520281791687,
        0.2088789939880371
      ],
      "max": [
        0.7945520281791687,
        2.496220111846924
      ],
      "type": "VEC2",
      "bufferView": 2,
      "byteOffset": 1216
    },
    {
      "name": "Mesh2 Model_1_2_indices",
      "componentType": 5123,
      "count": 72,
      "min": [
        0
      ],
      "max": [
        31
      ],
      "type": "SCALAR",
      "bufferView": 3,
      "byteOffset": 536
    }
  ],
  "asset": {
    "generator": "obj2gltf",
    "version": "2.0"
  },
  "buffers": [
    {
      "name": "fengmen",
      "byteLength": 91936,
      "uri": "data:application/octet-stream;base64,"
    }
  ],
  "bufferViews": [
    {
      "name": "bufferView_0",
      "buffer": 0,
      "byteLength": 2208,
      "byteOffset": 0,
      "byteStride": 12,
      "target": 34962
    },
    {
      "name": "bufferView_1",
      "buffer": 0,
      "byteLength": 2208,
      "byteOffset": 2208,
      "byteStride": 12,
      "target": 34962
    },
    {
      "name": "bufferView_2",
      "buffer": 0,
      "byteLength": 1472,
      "byteOffset": 4416,
      "byteStride": 8,
      "target": 34962
    },
    {
      "name": "bufferView_3",
      "buffer": 0,
      "byteLength": 680,
      "byteOffset": 5888,
      "target": 34963
    },
    {
      "buffer": 0,
      "byteOffset": 6568,
      "byteLength": 6574
    },
    {
      "buffer": 0,
      "byteOffset": 13142,
      "byteLength": 33729
    },
    {
      "buffer": 0,
      "byteOffset": 46871,
      "byteLength": 45062
    }
  ],
  "images": [
    {
      "name": "Wood_Floor",
      "mimeType": "image/jpeg",
      "bufferView": 4
    },
    {
      "name": "Granite_Light_Gray",
      "mimeType": "image/jpeg",
      "bufferView": 5
    },
    {
      "name": "Carrera_Marble",
      "mimeType": "image/jpeg",
      "bufferView": 6
    }
  ],
  "materials": [
    {
      "name": "FrontColor",
      "pbrMetallicRoughness": {
        "baseColorFactor": [
          1,
          1,
          1,
          1
        ],
        "metallicFactor": 0,
        "roughnessFactor": 1
      },
      "emissiveFactor": [
        0,
        0,
        0
      ],
      "alphaMode": "OPAQUE",
      "doubleSided": false
    },
    {
      "name": "Translucent_Glass_Blue",
      "pbrMetallicRoughness": {
        "baseColorFactor": [
          0.392157,
          0.584314,
          0.929412,
          0.5
        ],
        "metallicFactor": 0,
        "roughnessFactor": 1
      },
      "emissiveFactor": [
        0,
        0,
        0
      ],
      "alphaMode": "BLEND",
      "doubleSided": true
    },
    {
      "name": "Wood_Floor",
      "pbrMetallicRoughness": {
        "baseColorTexture": {
          "index": 0
        },
        "baseColorFactor": [
          1,
          1,
          1,
          1
        ],
        "metallicFactor": 0,
        "roughnessFactor": 1
      },
      "emissiveFactor": [
        0,
        0,
        0
      ],
      "alphaMode": "OPAQUE",
      "doubleSided": false
    },
    {
      "name": "Granite_Light_Gray",
      "pbrMetallicRoughness": {
        "baseColorTexture": {
          "index": 1
        },
        "baseColorFactor": [
          1,
          1,
          1,
          1
        ],
        "metallicFactor": 0,
        "roughnessFactor": 1
      },
      "emissiveFactor": [
        0,
        0,
        0
      ],
      "alphaMode": "OPAQUE",
      "doubleSided": false
    },
    {
      "name": "Carrera_Marble",
      "pbrMetallicRoughness": {
        "baseColorTexture": {
          "index": 2
        },
        "baseColorFactor": [
          1,
          1,
          1,
          1
        ],
        "metallicFactor": 0,
        "roughnessFactor": 1
      },
      "emissiveFactor": [
        0,
        0,
        0
      ],
      "alphaMode": "OPAQUE",
      "doubleSided": false
    }
  ],
  "meshes": [
    {
      "name": "Mesh1 Model_1",
      "primitives": [
        {
          "attributes": {
            "POSITION": 0,
            "NORMAL": 1,
            "TEXCOORD_0": 2
          },
          "indices": 3,
          "material": 0,
          "mode": 4
        },
        {
          "attributes": {
            "POSITION": 4,
            "NORMAL": 5,
            "TEXCOORD_0": 6
          },
          "indices": 7,
          "material": 1,
          "mode": 4
        },
        {
          "attributes": {
            "POSITION": 8,
            "NORMAL": 9,
            "TEXCOORD_0": 10
          },
          "indices": 11,
          "material": 2,
          "mode": 4
        },
        {
          "attributes": {
            "POSITION": 12,
            "NORMAL": 13,
            "TEXCOORD_0": 14
          },
          "indices": 15,
          "material": 3,
          "mode": 4
        },
        {
          "attributes": {
            "POSITION": 16,
            "NORMAL": 17,
            "TEXCOORD_0": 18
          },
          "indices": 19,
          "material": 4,
          "mode": 4
        }
      ]
    },
    {
      "name": "Mesh2 Model_1",
      "primitives": [
        {
          "attributes": {
            "POSITION": 20,
            "NORMAL": 21,
            "TEXCOORD_0": 22
          },
          "indices": 23,
          "material": 0,
          "mode": 4
        },
        {
          "attributes": {
            "POSITION": 24,
            "NORMAL": 25,
            "TEXCOORD_0": 26
          },
          "indices": 27,
          "material": 1,
          "mode": 4
        },
        {
          "attributes": {
            "POSITION": 28,
            "NORMAL": 29,
            "TEXCOORD_0": 30
          },
          "indices": 31,
          "material": 2,
          "mode": 4
        }
      ]
    }
  ],
  "nodes": [
    {
      "name": "Mesh1 Model",
      "mesh": 0
    },
    {
      "name": "Mesh2 Model",
      "mesh": 1
    }
  ],
  "samplers": [
    {
      "magFilter": 9729,
      "minFilter": 9986,
      "wrapS": 10497,
      "wrapT": 10497
    }
  ],
  "scene": 0,
  "scenes": [
    {
      "nodes": [
        0,
        1
      ]
    }
  ],
  "textures": [
    {
      "name": "Wood_Floor",
      "sampler": 0,
      "source": 0
    },
    {
      "name": "Granite_Light_Gray",
      "sampler": 0,
      "source": 1
    },
    {
      "name": "Carrera_Marble",
      "sampler": 0,
      "source": 2
    }
  ]
}
