{
  "accessors": [
    {
      "name": "Mesh1 Model_1_0_positions",
      "componentType": 5126,
      "count": 16,
      "min": [
        -0.5,
        -1.5,
        -0.10000000149011612
      ],
      "max": [
        0.5,
        0,
        0.10000000149011612
      ],
      "type": "VEC3",
      "bufferView": 0,
      "byteOffset": 0
    },
    {
      "name": "Mesh1 Model_1_0_normals",
      "componentType": 5126,
      "count": 16,
      "min": [
        -1,
        -1,
        0
      ],
      "max": [
        1,
        1,
        0
      ],
      "type": "VEC3",
      "bufferView": 1,
      "byteOffset": 0
    },
    {
      "name": "Mesh1 Model_1_0_texcoords",
      "componentType": 5126,
      "count": 16,
      "min": [
        -1.0310399532318115,
        1
      ],
      "max": [
        1,
        2.0102500915527344
      ],
      "type": "VEC2",
      "bufferView": 2,
      "byteOffset": 0
    },
    {
      "name": "Mesh1 Model_1_0_indices",
      "componentType": 5123,
      "count": 24,
      "min": [
        0
      ],
      "max": [
        15
      ],
      "type": "SCALAR",
      "bufferView": 3,
      "byteOffset": 0
    },
    {
      "name": "Mesh1 Model_1_1_positions",
      "componentType": 5126,
      "count": 8,
      "min": [
        -0.5,
        -1.5,
        -0.10000000149011612
      ],
      "max": [
        0.5,
        0,
        0.10000000149011612
      ],
      "type": "VEC3",
      "bufferView": 0,
      "byteOffset": 192
    },
    {
      "name": "Mesh1 Model_1_1_normals",
      "componentType": 5126,
      "count": 8,
      "min": [
        0,
        0,
        -1
      ],
      "max": [
        0,
        0,
        1
      ],
      "type": "VEC3",
      "bufferView": 1,
      "byteOffset": 192
    },
    {
      "name": "Mesh1 Model_1_1_texcoords",
      "componentType": 5126,
      "count": 8,
      "min": [
        -1,
        1
      ],
      "max": [
        1,
        2
      ],
      "type": "VEC2",
      "bufferView": 2,
      "byteOffset": 128
    },
    {
      "name": "Mesh1 Model_1_1_indices",
      "componentType": 5123,
      "count": 12,
      "min": [
        0
      ],
      "max": [
        7
      ],
      "type": "SCALAR",
      "bufferView": 3,
      "byteOffset": 48
    }
  ],
  "asset": {
    "generator": "obj2gltf",
    "version": "2.0"
  },
  "buffers": [
    {
      "name": "jixiebisuo",
      "byteLength": 16884,
      "uri": "data:application/octet-stream;base64,"
    }
  ],
  "bufferViews": [
    {
      "name": "bufferView_0",
      "buffer": 0,
      "byteLength": 288,
      "byteOffset": 0,
      "byteStride": 12,
      "target": 34962
    },
    {
      "name": "bufferView_1",
      "buffer": 0,
      "byteLength": 288,
      "byteOffset": 288,
      "byteStride": 12,
      "target": 34962
    },
    {
      "name": "bufferView_2",
      "buffer": 0,
      "byteLength": 192,
      "byteOffset": 576,
      "byteStride": 8,
      "target": 34962
    },
    {
      "name": "bufferView_3",
      "buffer": 0,
      "byteLength": 72,
      "byteOffset": 768,
      "target": 34963
    },
    {
      "buffer": 0,
      "byteOffset": 840,
      "byteLength": 8195
    },
    {
      "buffer": 0,
      "byteOffset": 9035,
      "byteLength": 7848
    }
  ],
  "images": [
    {
      "name": "_23",
      "mimeType": "image/jpeg",
      "bufferView": 4
    },
    {
      "name": "_24",
      "mimeType": "image/jpeg",
      "bufferView": 5
    }
  ],
  "materials": [
    {
      "name": "_23",
      "pbrMetallicRoughness": {
        "baseColorTexture": {
          "index": 0
        },
        "baseColorFactor": [
          1,
          1,
          1,
          1
        ],
        "metallicFactor": 0,
        "roughnessFactor": 1
      },
      "emissiveFactor": [
        0,
        0,
        0
      ],
      "alphaMode": "OPAQUE",
      "doubleSided": false
    },
    {
      "name": "_24",
      "pbrMetallicRoughness": {
        "baseColorTexture": {
          "index": 1
        },
        "baseColorFactor": [
          1,
          1,
          1,
          1
        ],
        "metallicFactor": 0,
        "roughnessFactor": 1
      },
      "emissiveFactor": [
        0,
        0,
        0
      ],
      "alphaMode": "OPAQUE",
      "doubleSided": false
    }
  ],
  "meshes": [
    {
      "name": "Mesh1 Model_1",
      "primitives": [
        {
          "attributes": {
            "POSITION": 0,
            "NORMAL": 1,
            "TEXCOORD_0": 2
          },
          "indices": 3,
          "material": 0,
          "mode": 4
        },
        {
          "attributes": {
            "POSITION": 4,
            "NORMAL": 5,
            "TEXCOORD_0": 6
          },
          "indices": 7,
          "material": 1,
          "mode": 4
        }
      ]
    }
  ],
  "nodes": [
    {
      "name": "Mesh1 Model",
      "mesh": 0
    }
  ],
  "samplers": [
    {
      "magFilter": 9729,
      "minFilter": 9986,
      "wrapS": 10497,
      "wrapT": 10497
    }
  ],
  "scene": 0,
  "scenes": [
    {
      "nodes": [
        0
      ]
    }
  ],
  "textures": [
    {
      "name": "_23",
      "sampler": 0,
      "source": 0
    },
    {
      "name": "_24",
      "sampler": 0,
      "source": 1
    }
  ]
}
