{
  "accessors": [
    {
      "name": "Mesh1 Model_1_0_positions",
      "componentType": 5126,
      "count": 20,
      "min": [
        -0.5,
        -1.5,
        -0.11999999731779099
      ],
      "max": [
        0.5,
        0,
        0.07999999821186066
      ],
      "type": "VEC3",
      "bufferView": 0,
      "byteOffset": 0
    },
    {
      "name": "Mesh1 Model_1_0_normals",
      "componentType": 5126,
      "count": 20,
      "min": [
        -1,
        -1,
        -1
      ],
      "max": [
        1,
        1,
        0
      ],
      "type": "VEC3",
      "bufferView": 1,
      "byteOffset": 0
    },
    {
      "name": "Mesh1 Model_1_0_texcoords",
      "componentType": 5126,
      "count": 20,
      "min": [
        -0.5,
        0.9200000166893005
      ],
      "max": [
        0.5,
        2
      ],
      "type": "VEC2",
      "bufferView": 2,
      "byteOffset": 0
    },
    {
      "name": "Mesh1 Model_1_0_indices",
      "componentType": 5123,
      "count": 30,
      "min": [
        0
      ],
      "max": [
        19
      ],
      "type": "SCALAR",
      "bufferView": 3,
      "byteOffset": 0
    },
    {
      "name": "Mesh1 Model_1_1_positions",
      "componentType": 5126,
      "count": 4,
      "min": [
        -0.5,
        -1.5,
        0.07999999821186066
      ],
      "max": [
        0.5,
        0,
        0.07999999821186066
      ],
      "type": "VEC3",
      "bufferView": 0,
      "byteOffset": 240
    },
    {
      "name": "Mesh1 Model_1_1_normals",
      "componentType": 5126,
      "count": 4,
      "min": [
        0,
        0,
        1
      ],
      "max": [
        0,
        0,
        1
      ],
      "type": "VEC3",
      "bufferView": 1,
      "byteOffset": 240
    },
    {
      "name": "Mesh1 Model_1_1_texcoords",
      "componentType": 5126,
      "count": 4,
      "min": [
        -1,
        1
      ],
      "max": [
        9.436899944478567e-16,
        2
      ],
      "type": "VEC2",
      "bufferView": 2,
      "byteOffset": 160
    },
    {
      "name": "Mesh1 Model_1_1_indices",
      "componentType": 5123,
      "count": 6,
      "min": [
        0
      ],
      "max": [
        3
      ],
      "type": "SCALAR",
      "bufferView": 3,
      "byteOffset": 60
    }
  ],
  "asset": {
    "generator": "obj2gltf",
    "version": "2.0"
  },
  "buffers": [
    {
      "name": "wasijiance",
      "byteLength": 24480,
      "uri": "data:application/octet-stream;base64,"
    }
  ],
  "bufferViews": [
    {
      "name": "bufferView_0",
      "buffer": 0,
      "byteLength": 288,
      "byteOffset": 0,
      "byteStride": 12,
      "target": 34962
    },
    {
      "name": "bufferView_1",
      "buffer": 0,
      "byteLength": 288,
      "byteOffset": 288,
      "byteStride": 12,
      "target": 34962
    },
    {
      "name": "bufferView_2",
      "buffer": 0,
      "byteLength": 192,
      "byteOffset": 576,
      "byteStride": 8,
      "target": 34962
    },
    {
      "name": "bufferView_3",
      "buffer": 0,
      "byteLength": 72,
      "byteOffset": 768,
      "target": 34963
    },
    {
      "buffer": 0,
      "byteOffset": 840,
      "byteLength": 1173
    },
    {
      "buffer": 0,
      "byteOffset": 2013,
      "byteLength": 22465
    }
  ],
  "images": [
    {
      "name": "_1",
      "mimeType": "image/jpeg",
      "bufferView": 4
    },
    {
      "name": "_2",
      "mimeType": "image/jpeg",
      "bufferView": 5
    }
  ],
  "materials": [
    {
      "name": "_1",
      "pbrMetallicRoughness": {
        "baseColorTexture": {
          "index": 0
        },
        "baseColorFactor": [
          1,
          1,
          1,
          1
        ],
        "metallicFactor": 0,
        "roughnessFactor": 1
      },
      "emissiveFactor": [
        0,
        0,
        0
      ],
      "alphaMode": "OPAQUE",
      "doubleSided": false
    },
    {
      "name": "_2",
      "pbrMetallicRoughness": {
        "baseColorTexture": {
          "index": 1
        },
        "baseColorFactor": [
          1,
          1,
          1,
          1
        ],
        "metallicFactor": 0,
        "roughnessFactor": 1
      },
      "emissiveFactor": [
        0,
        0,
        0
      ],
      "alphaMode": "OPAQUE",
      "doubleSided": false
    }
  ],
  "meshes": [
    {
      "name": "Mesh1 Model_1",
      "primitives": [
        {
          "attributes": {
            "POSITION": 0,
            "NORMAL": 1,
            "TEXCOORD_0": 2
          },
          "indices": 3,
          "material": 0,
          "mode": 4
        },
        {
          "attributes": {
            "POSITION": 4,
            "NORMAL": 5,
            "TEXCOORD_0": 6
          },
          "indices": 7,
          "material": 1,
          "mode": 4
        }
      ]
    }
  ],
  "nodes": [
    {
      "name": "Mesh1 Model",
      "mesh": 0
    }
  ],
  "samplers": [
    {
      "magFilter": 9729,
      "minFilter": 9986,
      "wrapS": 10497,
      "wrapT": 10497
    }
  ],
  "scene": 0,
  "scenes": [
    {
      "nodes": [
        0
      ]
    }
  ],
  "textures": [
    {
      "name": "_1",
      "sampler": 0,
      "source": 0
    },
    {
      "name": "_2",
      "sampler": 0,
      "source": 1
    }
  ]
}
